<?xml version="1.0" standalone="no"?>
<!DOCTYPE svg PUBLIC "-//W3C//DTD SVG 20010904//EN"
 "http://www.w3.org/TR/2001/REC-SVG-20010904/DTD/svg10.dtd">
<svg version="1.0" xmlns="http://www.w3.org/2000/svg"
 width="960.000000pt" height="960.000000pt" viewBox="0 0 960.000000 960.000000"
 preserveAspectRatio="xMidYMid meet">
<metadata>
Created by potrace 1.11, written by Peter Selinger 2001-2013
</metadata>
<g transform="translate(0.000000,960.000000) scale(0.100000,-0.100000)"
fill="#000000" stroke="none">
<path d="M4507 7960 c-197 -99 -365 -180 -372 -180 -7 0 -40 15 -72 33 -32 18
-82 42 -110 52 l-51 18 -88 -43 c-49 -23 -100 -48 -114 -55 -14 -7 -229 -114
-478 -239 -248 -124 -454 -225 -455 -223 -2 1 -10 -3 -18 -10 -8 -6 -587 -298
-1287 -648 -853 -426 -1275 -642 -1280 -655 -4 -10 -7 -190 -6 -399 l0 -380
-85 -45 -86 -45 -3 -773 -2 -774 265 0 c176 0 265 4 266 11 0 5 2 251 3 545 2
294 4 538 4 542 1 4 48 29 104 57 l101 50 141 -73 c78 -40 231 -120 341 -176
196 -101 230 -120 208 -120 -7 0 -10 -234 -9 -772 l1 -773 245 -2 c135 -1 254
0 265 2 20 4 20 10 20 551 l0 547 30 14 c16 8 59 29 94 47 l65 32 40 -21 c23
-12 138 -72 257 -133 119 -61 259 -133 310 -160 l94 -48 0 -770 0 -769 266 -2
266 -2 0 543 c1 299 3 549 7 554 4 6 41 27 83 48 l77 36 180 -92 c100 -51 222
-114 271 -140 50 -26 131 -68 181 -94 l91 -46 -1 -760 -1 -760 267 0 268 0 0
127 c0 71 0 259 -1 418 0 160 0 297 0 305 0 8 0 68 0 132 l1 118 70 35 70 35
57 -28 c32 -16 123 -63 203 -104 80 -41 231 -119 335 -173 105 -53 223 -115
263 -137 51 -28 76 -37 85 -30 7 6 824 416 1817 913 993 496 1812 908 1820
915 8 7 17 12 20 12 3 0 17 6 33 13 l27 12 0 463 0 463 -45 26 -45 27 -2 526
-3 525 -25 3 c-25 3 -133 10 -265 19 -38 3 -94 7 -124 10 l-54 6 -374 -187
c-205 -102 -380 -195 -387 -206 -8 -11 -12 -27 -9 -34 6 -17 -1 -17 -44 -2
-21 8 -36 21 -40 36 -3 12 -6 238 -7 500 -1 469 -1 477 -21 479 -11 0 -40 4
-65 7 -25 3 -97 8 -160 11 -99 6 -175 12 -216 17 -5 1 -183 -85 -394 -191
l-384 -192 -81 41 c-44 23 -85 46 -90 50 -7 6 -10 176 -10 480 0 259 -2 475
-5 479 -5 9 -82 18 -225 26 -147 9 -217 15 -225 20 -4 2 -41 -12 -81 -32 -41
-20 -76 -37 -79 -38 -3 0 -16 -7 -30 -15 -60 -33 -440 -220 -443 -218 -2 2
-10 -2 -18 -9 -8 -6 -36 -23 -62 -37 l-48 -25 -103 52 -102 52 0 470 0 470
-44 6 c-40 6 -166 15 -336 24 -29 2 -60 5 -70 9 -12 3 -144 -57 -377 -174z
m293 -479 l0 -49 -50 26 c-46 24 -57 42 -24 42 8 0 14 4 14 9 0 9 20 17 48 20
8 1 12 -15 12 -48z m1421 -748 l-3 -32 -61 30 c-67 34 -68 30 18 74 l40 21 5
-31 c3 -16 3 -44 1 -62z m1424 -691 l0 -78 -72 35 c-40 20 -72 38 -73 41 0 3
33 22 73 42 39 20 72 37 72 37 0 1 0 -34 0 -77z m1332 -657 c0 -58 -1 -105 -3
-105 -17 0 -204 104 -197 110 8 9 184 98 194 99 3 1 6 -46 6 -104z"/>
</g>
</svg>
